<svg id="Layer_1" data-name="Layer 1" xmlns="http://www.w3.org/2000/svg" viewBox="0 0 100 100"><defs><style>.cls-1{fill:#fff;}</style></defs><path class="cls-1" d="M36,89a8.09,8.09,0,0,1-5.75-2.37L2.38,59a8,8,0,0,1,0-11.42L9,41a8.19,8.19,0,0,1,11.51,0L36,56.47,79.53,13.36a8.19,8.19,0,0,1,11.51,0l6.57,6.52a8,8,0,0,1,0,11.41L41.8,86.63A8.11,8.11,0,0,1,36,89Zm3.29-4.81h0ZM14.71,45.58a1.16,1.16,0,0,0-.82.34L7.31,52.44a1.15,1.15,0,0,0,0,1.63L35.22,81.74a1.2,1.2,0,0,0,1.65,0L92.68,26.4a1.15,1.15,0,0,0,0-1.63L86.1,18.25a1.16,1.16,0,0,0-1.64,0L38.51,63.81a3.52,3.52,0,0,1-4.94,0l-18-17.89A1.11,1.11,0,0,0,14.71,45.58Z"/></svg>