<svg id="b4edad8e-feed-47db-ba00-6f3be4e35f36" data-name="Layer 1" xmlns="http://www.w3.org/2000/svg" viewBox="0 0 227 112"><defs><style>.b8b934d1-1fc3-47a5-a67b-e5acfab64c36,.f710b24c-ab34-4dbb-b612-e85be815d870{fill:#fff;}.f710b24c-ab34-4dbb-b612-e85be815d870{font-size:18px;font-family:YonkyBlack-Italic, Yonky;font-style:italic;letter-spacing:0.03em;}.aae3995e-43bd-4537-a6ee-d1df8b058bac{letter-spacing:0.01em;}.bed568d2-733c-4557-93ae-4b7f0b80c00b{letter-spacing:-0.02em;}</style></defs><circle class="b8b934d1-1fc3-47a5-a67b-e5acfab64c36" cx="80" cy="36" r="10"/><path class="b8b934d1-1fc3-47a5-a67b-e5acfab64c36" d="M113,48a39.76,39.76,0,0,1-20,7,40.21,40.21,0,0,1-25-7c.41,1.27,4.32,12.71,15,16S107.13,61,113,48Z"/><path class="b8b934d1-1fc3-47a5-a67b-e5acfab64c36" d="M66,69c.39-.19,9.52-4.46,16,0s8.38,16.43,1,26a38.39,38.39,0,0,0-8-18A37.59,37.59,0,0,0,66,69Z"/><path class="b8b934d1-1fc3-47a5-a67b-e5acfab64c36" d="M70.31,59.9C70,59.6,61.77,52.71,53.83,55S40.52,68.2,45.4,79.63A37.15,37.15,0,0,1,58.76,64.82,39.66,39.66,0,0,1,70.31,59.9Z"/><path class="b8b934d1-1fc3-47a5-a67b-e5acfab64c36" d="M43,38.81a24.31,24.31,0,0,1,11.9-.44,24.73,24.73,0,0,1,12.77,7.15c-.06-.69-.68-6.87-6.1-10.07S47.92,33.32,43,38.81Z"/><text class="f710b24c-ab34-4dbb-b612-e85be815d870" transform="translate(95.73 84.75)">RUNHE<tspan class="aae3995e-43bd-4537-a6ee-d1df8b058bac" x="74.93" y="0">A</tspan><tspan class="bed568d2-733c-4557-93ae-4b7f0b80c00b" x="89.24" y="0">L</tspan></text></svg>