<svg xmlns="http://www.w3.org/2000/svg" viewBox="0 0 1056.36 366"><defs><style>.b4095bc4-1178-4e93-b7d8-f3e82c523f3d{opacity:0.75;}.f086d4e8-d558-480e-b95e-7aec46d22f91{opacity:0.5;}.bde4d0bf-01db-4700-8c69-7063e8ddd489{opacity:0.11;}</style></defs><g id="bce77b0d-1e82-45aa-b19d-5012fe1d371f" data-name="Layer 4" class="b4095bc4-1178-4e93-b7d8-f3e82c523f3d"><circle cx="791.93" cy="45.8" r="27"/><path d="M760.93,77.94V77.8a323.54,323.54,0,0,0-88.46-.26c-2.39,33.6-1.19,77.09-1.54,95.34A8.57,8.57,0,0,0,688,174q4.13-38.4,8.26-76.79,9.94,2.52,20.46,4.84c13,2.85,25.58,5.17,37.65,7.06a16,16,0,1,0,6.56-31.21Z"/><path d="M814.93,100.8c2,7,3.66,12.25,5.49,18.38l6.16,20.62,73.1-22a8.14,8.14,0,0,1,8.25,14l-84.88,31c-2-1.26-4.07-2.59-6.12-4a167.53,167.53,0,0,1-24-20Z"/><path d="M782.93,188.8c-3.33,12.33-10.67,23.67-14,36l59,33-72,55c-.49.7-3.57,5.26-2,9,1.82,4.33,6.64,11.92,15,8,31.66-21.54,94.9-64.92,98-70a9.31,9.31,0,0,0,1-3,18.23,18.23,0,0,0-.56-4.09C866.32,249.89,831.36,223.59,782.93,188.8Z"/><path d="M658.93,348.8c2-3,49-37.95,69-62l29.86-57.36c-10.91-6.75-26-16.9-36.86-23.64-8,19.84-11.89,43.09-19.9,62.93-18.36,24.83-37.73,40.24-56.1,65.07a10.54,10.54,0,0,0,14,15Z"/><polygon points="801.06 27.54 832.93 45.8 835.93 50.8 803.93 40.8 801.06 27.54"/><path d="M819.93,45.53A29.78,29.78,0,0,0,790.4,15.8a29.44,29.44,0,0,0-25.47,14.83Z"/></g><g id="a91dbe1d-c9f5-4cb0-bf65-590e62860a23" data-name="Layer 2" class="f086d4e8-d558-480e-b95e-7aec46d22f91"><circle cx="672.32" cy="44.33" r="27"/><path d="M641.32,76.47v-.14a323.15,323.15,0,0,0-88.46-.26c-2.39,33.6-1.19,77.09-1.54,95.34a8.57,8.57,0,0,0,17.07,1.16q4.14-38.4,8.26-76.79,9.95,2.52,20.46,4.84c13,2.85,25.58,5.17,37.65,7.06a16,16,0,1,0,6.56-31.21Z"/><path d="M695.32,99.33c2,7,3.66,12.25,5.49,18.38L707,138.33l73.1-22a8.14,8.14,0,0,1,8.25,14l-84.88,31c-2-1.26-4.07-2.59-6.12-4a168.19,168.19,0,0,1-24-20Z"/><path d="M663.32,187.33c-3.33,12.33-10.67,23.67-14,36l59,33-72,55c-.49.7-3.57,5.26-2,9,1.82,4.33,6.64,11.92,15,8,31.66-21.54,94.9-64.92,98-70a9.4,9.4,0,0,0,1-3,18.23,18.23,0,0,0-.56-4.09C746.71,248.42,711.75,222.12,663.32,187.33Z"/><path d="M539.32,347.33c2-3,49-37.95,69-62L638.18,228c-10.91-6.75-26-16.9-36.86-23.64-8,19.84-11.89,43.09-19.9,62.93-18.36,24.83-37.73,40.24-56.1,65.07a10.54,10.54,0,0,0,14,15Z"/><polygon points="681.45 26.06 713.32 44.33 716.32 49.33 684.32 39.33 681.45 26.06"/><path d="M700.32,44.06a29.77,29.77,0,0,0-29.53-29.73,29.42,29.42,0,0,0-25.47,14.83Z"/></g><g id="e8fb44c8-7783-42a2-bd2e-ef5bacffc480" data-name="Layer 3" class="bde4d0bf-01db-4700-8c69-7063e8ddd489"><circle cx="539.14" cy="45.8" r="27"/><path d="M508.14,77.94V77.8a323.54,323.54,0,0,0-88.46-.26c-2.39,33.6-1.19,77.09-1.54,95.34A8.57,8.57,0,0,0,435.21,174q4.13-38.4,8.26-76.79,9.93,2.52,20.46,4.84c13,2.85,25.58,5.17,37.65,7.06a16,16,0,1,0,6.56-31.21Z"/><path d="M562.14,100.8c2,7,3.66,12.25,5.49,18.38l6.16,20.62,73.1-22a8.14,8.14,0,0,1,8.25,14l-84.88,31c-2-1.26-4.07-2.59-6.12-4a167,167,0,0,1-24-20Z"/><path d="M530.14,188.8c-3.33,12.33-10.67,23.67-14,36l59,33-72,55c-.49.7-3.57,5.26-2,9,1.82,4.33,6.64,11.92,15,8,31.66-21.54,94.9-64.92,98-70a9.31,9.31,0,0,0,1-3,18.23,18.23,0,0,0-.56-4.09C613.53,249.89,578.57,223.59,530.14,188.8Z"/><path d="M406.14,348.8c2-3,49-37.95,69-62L505,229.44c-10.91-6.75-26-16.9-36.86-23.64-8,19.84-11.89,43.09-19.9,62.93-18.36,24.83-37.73,40.24-56.1,65.07a10.54,10.54,0,0,0,14,15Z"/><polygon points="548.27 27.54 580.14 45.8 583.14 50.8 551.14 40.8 548.27 27.54"/><path d="M567.14,45.53A29.78,29.78,0,0,0,537.61,15.8a29.44,29.44,0,0,0-25.47,14.83Z"/></g><g id="b3fbc74c-6918-40de-ba5d-c349c441e86c" data-name="a61c0a26-eda7-4670-a4f0-21eb24ba9cf6"><circle cx="907.36" cy="47" r="27"/><path d="M876.36,79.14V79a323.15,323.15,0,0,0-88.46-.26c-2.39,33.6-1.19,77.09-1.54,95.34a8.57,8.57,0,0,0,17.07,1.16q4.14-38.4,8.26-76.79,9.94,2.52,20.46,4.84c13,2.85,25.58,5.17,37.65,7.06a16,16,0,1,0,6.56-31.21Z"/><path d="M930.36,102c2,7,3.66,12.25,5.49,18.38L942,141l73.1-22a8.14,8.14,0,0,1,8.25,14l-84.88,31c-2-1.26-4.07-2.59-6.12-4a168.75,168.75,0,0,1-24-20Z"/><path d="M898.36,190c-3.33,12.33-10.67,23.67-14,36l59,33-72,55c-.49.7-3.57,5.26-2,9,1.82,4.33,6.64,11.92,15,8,31.66-21.54,94.9-64.92,98-70a9.4,9.4,0,0,0,1-3,18.23,18.23,0,0,0-.56-4.09C981.75,251.09,946.79,224.79,898.36,190Z"/><path d="M774.36,350c2-3,49-37.95,69-62l29.86-57.36c-10.91-6.75-26-16.9-36.86-23.64-8,19.84-11.89,43.09-19.9,62.93-18.36,24.83-37.73,40.24-56.1,65.07a10.54,10.54,0,0,0,14,15Z"/><polygon points="916.49 28.73 948.36 47 951.36 52 919.36 42 916.49 28.73"/><path d="M935.36,46.73A29.76,29.76,0,0,0,905.83,17a29.43,29.43,0,0,0-25.47,14.83Z"/><path d="M420.24,46.54l-218-2.5,218-2.5a2.5,2.5,0,0,1,.06,5Z"/><path d="M335.7,107.68l-291-2,291-2a2,2,0,0,1,0,4Z"/><path d="M367.18,177.18l-291-1.5,291-1.5a1.5,1.5,0,0,1,0,3Z"/><path d="M395.18,246.68l-291-1,291-1a1,1,0,0,1,0,2Z"/><path d="M358.7,305.47l-218-.5,218-.5a.5.5,0,0,1,.5.5A.51.51,0,0,1,358.7,305.47Z"/></g></svg>