<svg id="f88e851f-d327-42d7-8999-53d07ba0b0ba" data-name="Layer 1" xmlns="http://www.w3.org/2000/svg" viewBox="0 0 334 366"><circle cx="185" cy="47" r="27"/><path d="M154,79.14l0-.15a323.26,323.26,0,0,0-88.46-.26c-2.39,33.6-1.19,77.09-1.54,95.34a8.57,8.57,0,0,0,17.07,1.16q4.13-38.4,8.26-76.79,9.95,2.52,20.46,4.84c13,2.85,25.58,5.17,37.65,7.06A16.18,16.18,0,0,0,152,111a16,16,0,0,0,2-31.86Z"/><path d="M208,102c2,7,3.66,12.25,5.49,18.38L219.65,141l73.1-22A8.14,8.14,0,0,1,301,133l-84.88,31c-2-1.26-4.07-2.59-6.12-4a168.52,168.52,0,0,1-24-20Z"/><path d="M176,190c-3.33,12.33-10.67,23.67-14,36l59,33-72,55c-.49.7-3.57,5.26-2,9,1.82,4.33,6.64,11.92,15,8,31.66-21.54,94.9-64.92,98-70a9.39,9.39,0,0,0,1-3,17.82,17.82,0,0,0-.56-4.09C259.39,251.09,224.43,224.79,176,190Z"/><path d="M52,350c2-3,49-37.95,69-62l29.86-57.36c-10.91-6.75-26-16.9-36.86-23.64-8,19.84-11.89,43.09-19.9,62.93C75.74,294.76,56.37,310.17,38,335a10.54,10.54,0,0,0,14,15Z"/><polygon points="194.13 28.73 226 47 229 52 197 42 194.13 28.73"/><path d="M213,46.73A29.77,29.77,0,0,0,183.47,17,29.42,29.42,0,0,0,158,31.83Z"/></svg>