<svg id="a61c0a26-eda7-4670-a4f0-21eb24ba9cf6" data-name="f88e851f-d327-42d7-8999-53d07ba0b0ba" xmlns="http://www.w3.org/2000/svg" viewBox="0 0 666 366"><circle cx="517" cy="47" r="27"/><path d="M486,79.14V79a323.15,323.15,0,0,0-88.46-.26c-2.39,33.6-1.19,77.09-1.54,95.34a8.57,8.57,0,0,0,17.07,1.16q4.13-38.4,8.26-76.79,9.94,2.52,20.46,4.84c13,2.85,25.58,5.17,37.65,7.06A16,16,0,1,0,486,79.14Z"/><path d="M540,102c2,7,3.66,12.25,5.49,18.38L551.65,141l73.1-22A8.14,8.14,0,0,1,633,133l-84.88,31c-2-1.26-4.07-2.59-6.12-4a168.19,168.19,0,0,1-24-20Z"/><path d="M508,190c-3.33,12.33-10.67,23.67-14,36l59,33-72,55c-.49.7-3.57,5.26-2,9,1.82,4.33,6.64,11.92,15,8,31.66-21.54,94.9-64.92,98-70a9.4,9.4,0,0,0,1-3,18.23,18.23,0,0,0-.56-4.09C591.39,251.09,556.43,224.79,508,190Z"/><path d="M384,350c2-3,49-37.95,69-62l29.86-57.36c-10.91-6.75-26-16.9-36.86-23.64-8,19.84-11.89,43.09-19.9,62.93C407.74,294.76,388.37,310.17,370,335a10.54,10.54,0,0,0,14,15Z"/><polygon points="526.13 28.73 558 47 561 52 529 42 526.13 28.73"/><path d="M545,46.73A29.77,29.77,0,0,0,515.47,17,29.42,29.42,0,0,0,490,31.83Z"/><path d="M425.54,42.86l-218-2.5,218-2.5a2.5,2.5,0,0,1,.06,5Z"/><path d="M341,104,50,102l291-2a2,2,0,0,1,0,4Z"/><path d="M372.48,173.5,81.5,172l291-1.5a1.5,1.5,0,1,1,0,3Z"/><path d="M400.48,243l-291-1,291-1a1,1,0,1,1,0,2Z"/><path d="M364,301.79l-218-.5,218-.5a.5.5,0,0,1,0,1Z"/></svg>