<svg id="Layer_1" data-name="Layer 1" xmlns="http://www.w3.org/2000/svg" viewBox="0 0 88 88.72"><defs><style>.cls-1{fill:#fff;}</style></defs><path class="cls-1" d="M49.85,4.28A44,44,0,0,0,12.79,68.21L8.12,90.88a1.71,1.71,0,0,0,2.07,2l22.22-5.26A44,44,0,1,0,49.85,4.28ZM76.36,72.59a34.45,34.45,0,0,1-39.69,6.49l-3.1-1.54L20,80.77l2.87-13.92-1.53-3a34.5,34.5,0,0,1,6.35-40A34.45,34.45,0,0,1,76.36,72.59Z" transform="translate(-8 -4.22)"/><path class="cls-1" d="M73.35,57.77l-8.52-2.45a3.15,3.15,0,0,0-3.14.83L59.6,58.27a3.09,3.09,0,0,1-3.37.71c-4-1.63-12.51-9.17-14.68-12.94a3.09,3.09,0,0,1,.25-3.44l1.81-2.36A3.15,3.15,0,0,0,44,37l-3.59-8.11a3.17,3.17,0,0,0-5-1.14c-2.38,2-5.2,5.07-5.55,8.46-.6,6,2,13.49,11.64,22.53,11.19,10.45,20.15,11.83,26,10.41,3.31-.8,6-4,7.63-6.64A3.18,3.18,0,0,0,73.35,57.77Z" transform="translate(-8 -4.22)"/></svg>